<svg width="14" height="14" viewBox="0 0 14 14" fill="none" xmlns="http://www.w3.org/2000/svg">
<path d="M0.285406 8.338L0.681406 7.402H2.08541C2.04941 7.102 2.03141 6.808 2.03141 6.52C2.03141 6.46 2.03141 6.4 2.03141 6.34H0.717406L1.11341 5.404H2.12141C2.24141 4.72 2.45741 4.066 2.76941 3.442C3.09341 2.818 3.50741 2.26 4.01141 1.768C4.52741 1.264 5.12741 0.868 5.81141 0.579999C6.49541 0.291999 7.26341 0.147999 8.11541 0.147999C9.25541 0.147999 10.2334 0.411999 11.0494 0.94C11.8654 1.456 12.4714 2.122 12.8674 2.938L11.5894 3.766C11.3374 3.226 11.0134 2.8 10.6174 2.488C10.2334 2.164 9.81341 1.936 9.35741 1.804C8.91341 1.672 8.47541 1.606 8.04341 1.606C7.25141 1.606 6.56141 1.786 5.97341 2.146C5.38541 2.494 4.90541 2.956 4.53341 3.532C4.17341 4.108 3.92741 4.732 3.79541 5.404H9.44741L9.05141 6.34H3.66941C3.66941 6.424 3.66941 6.508 3.66941 6.592C3.66941 6.868 3.68741 7.138 3.72341 7.402H8.81741L8.42141 8.338H3.93941C4.14341 8.962 4.44341 9.526 4.83941 10.03C5.24741 10.534 5.72741 10.93 6.27941 11.218C6.83141 11.506 7.43741 11.65 8.09741 11.65C8.54141 11.65 8.99741 11.572 9.46541 11.416C9.93341 11.26 10.3714 11.02 10.7794 10.696C11.1874 10.36 11.5114 9.928 11.7514 9.4L13.1014 10.138C12.8374 10.774 12.4294 11.314 11.8774 11.758C11.3254 12.202 10.7074 12.538 10.0234 12.766C9.35141 12.994 8.68541 13.108 8.02541 13.108C7.07741 13.108 6.21341 12.892 5.43341 12.46C4.65341 12.016 3.99341 11.434 3.45341 10.714C2.91341 9.982 2.52341 9.19 2.28341 8.338H0.285406Z" fill="#1D1F22"/>
</svg>
